<svg xmlns="http://www.w3.org/2000/svg" version="1.1" xmlns:xlink="http://www.w3.org/1999/xlink" viewBox="0 0 800 800" style="overflow: hidden; display: block;" width="800" height="800"><defs><linearGradient id="dddraw-gradient" x1="400" y1="-400" x2="400" y2="800" spreadMethod="pad" gradientUnits="userSpaceOnUse"><stop offset="0%" stop-color="hsl(1.4, 100%, 67%)" stop-opacity="1"></stop><stop offset="100%" stop-color="hsl(167, 52%, 78%)" stop-opacity="1"></stop></linearGradient></defs><g id="two-0" transform="matrix(1 0 0 1 0 0)" opacity="1"></g><path d="M 356.4361589005488 309.40696061119684 Q 356.4361589005488 309.40696061119684 359.1513386493403 305.3737406934615 361.8665183981318 301.3405207757262 377.3425793317052 286.27570085809566 392.81864026527865 271.2108809404652 412.17885567601223 263.29573275303414 431.5390710867458 255.38058456560304 452.1513503920172 256.06948862762596 472.7636296972886 256.7583926896489 493.7172460784679 269.51825764109026 514.6708624596472 282.27812259253164 526.9571083844886 301.585475509061 539.24335430933 320.8928284255904 545.1165333599471 341.6423033380139 550.9897124105642 362.3917782504374 552.0404009344784 386.998235641217 553.0910894583925 411.60469303199653 546.067733193164 435.12183329794505 539.0443769279356 458.6389735638935 524.6321178461827 477.13080897883697 510.21985876442983 495.6226443937805 492.0516120689574 506.6202480992615 473.88336537348505 517.6178518047425 448.82439678734573 523.3988617147118 423.7654282012064 529.1798716246809 401.6021516374965 528.9434624665801 379.4388750737866 528.7070533084792 355.67970548506406 523.1856040670473 331.9205358963415 517.6641548256154 313.5555345960237 507.4605348372113 295.1905332957058 497.25691484880724 276.7974072107153 479.4397449252432 258.40428112572476 461.62257500167914 246.6767591534809 443.2141712351938 234.94923718123704 424.8057674687085 226.14931757123452 401.12237471921674 217.349397961232 377.43898196972503 212.89403939248297 353.0977029485408 208.4386808237339 328.75642392735665 208.90798751335387 302.7151664206526 209.37729420297387 276.67390891394854 216.63545628747818 251.59352525967125 223.89361837198248 226.51314160539397 234.30176582638524 208.81224048535373 244.709913280788 191.11133936531348 261.4437673822079 171.72361403067737 278.17762148362783 152.33588869604125 294.6652820170343 139.63256027990414 311.15294255044074 126.92923186376704 331.86941339778866 117.00386536946917 352.5858842451366 107.07849887517128 372.6446612963753 101.01058260473303 392.70343834761405 94.94266633429478 416.7374730347532 90.72252518335247 440.77150772189225 86.50238403241016 467.2963762629454 86.18927020488006 493.8212448039985 85.87615637734996 517.506685482429 90.06398387097728 541.1921261608595 94.2518113646046 561.7085184205346 101.11413349427491 582.2249106802096 107.9764556239452 600.6954655360555 117.50096441476666 619.1660203919014 127.02547320558811 638.4444135532576 140.62646215811134 657.722806714614 154.22745111063455 673.1843323894018 170.351036059994 688.6458580641897 186.4746210093534 701.4790550161053 206.1227190231321 714.3122519680209 225.77081703691084 724.352926705779 247.05366777477255 734.3936014435372 268.33651851263426 741.8526592672067 292.33124102833756 749.3117170908763 316.32596354404086 752.6581727625862 336.92614255169065 756.0046284342961 357.5263215593404 756.6524994522827 381.1546919186071 757.3003704702691 404.7830622778738 754.0729742957622 429.3080134552009 750.8455781212551 453.832964632528 745.7100518217812 475.67098702870885 740.5745255223072 497.50900942488965 732.4228970068584 522.6746658072316 724.2712684914097 547.8403221895735 714.4971942621703 569.073210599083 704.7231200329308 590.3060990085926 690.7112932280402 610.665711396637 676.6994664231496 631.0253237846814 658.9950070052787 647.3551561473982 641.2905475874078 663.6849885101151 623.1530231830377 675.5230121549778 605.0154987786677 687.3610357998404 585.0312547634167 696.764448063167 565.0470107481655 706.1678603264937 541.9748766575015 713.8142403860686 518.9027425668373 721.4606204456435 495.1935374305699 725.6977477732075 471.4843322943024 729.9348751007717 446.95605726650115 731.3807605684718 422.42778223869993 732.826646036172 401.525279088699 732.6484285371055 380.6227759386981 732.4702110380391 358.5736721331007 730.9184820439418 336.5245683275033 729.3667530498445 315.92026137462415 726.3105542798747 295.315954421745 723.2543555099049 274.68809991718973 716.6395628846753 254.06024541263446 710.0247702594456 234.6829464592546 701.1650867413929 215.30564750587476 692.3054032233401 198.03551847884785 680.3823902617839 180.7653894518209 668.4593773002276 165.72441443296998 652.6343785487402 150.68343941411902 636.8093797972527 138.62243378318686 616.9145380319125 126.56142815225468 597.0196962665722 117.44358418244609 578.1971792856752 108.3257402126375 559.3746623047782 100.04099487917526 538.811704557417 91.75624954571302 518.2487468100556 86.3155499885295 498.27465948698614 80.87485043134598 478.3005721639166 78.69140288723655 468.5422040300764 76.50795534312712 458.78383589623616 76.40798949801594 449.61043478355145 76.30802365290475 440.4370336708668 79.14246197433656 431.7119410899029 81.97690029576837 422.986848508939 87.44897634327023 415.62358395612347 92.92105239077208 408.26031940330796 100.45783835768275 403.0298186210337 107.99462432459342 397.79931783875946 116.80701673065906 395.2492156396487 125.6194091367247 392.69911344053793 134.7847481707846 393.09640619799916 143.9500872048445 393.49369895546045 152.50875945061802 396.7967900129124 161.06743169639154 400.09988107036435 168.12334191047614 405.9629359221604 175.17925212456078 411.82599077395645 179.99364464496242 419.63514602941746 184.80803716536406 427.4443012848784 186.87684382432047 436.3819363273408 188.9456504832769 445.3195713698031 188.05226667748343 454.4499134510145 187.15888287168997 463.5802555322258 183.39684612144362 471.94735542610715 179.63480937119726 480.31445531998844 173.39800591733007 487.0422754589505 167.1612024634629 493.7700955979126 159.102627273951 498.15423143743396 151.04405208443907 502.5383672769554 142.00744010888155 504.1197986373388 132.97082813332406 505.70122999772224 123.9023150309958 504.3143805980782 114.83380192866754 502.9275311984341 106.68286341523716 498.717604536998 98.5319249018068 494.50767787556185 92.15196639126934 487.91545438509877 85.77200788073188 481.32323089463574 81.83101271328606 473.03891811477513 77.89001754584024 464.7546053349145 76.80060895583932 455.645573000554 75.7112003658384 446.53654066619356 77.58743972023143 437.5565068672917 79.46367907462445 428.5764730683899 84.10912361772736 420.6656497141904 88.75456816083027 412.7548263599909 95.68283862270198 406.741478743933 102.61110908457368 400.7281311278751 111.09681371897041 397.2418583327297 119.58251835336713 393.7555855375843 128.73720164505906 393.16140124528977 137.89188493675098 392.5672169529952 146.75704912849625 394.9273324158041 155.6222133202415 397.28744787861297 163.2696733809884 402.3547583845593 170.91713344173527 407.4220688905057 176.54619828439013 414.66602569197687 182.17526312704499 421.909982493448 185.19656817665305 430.572141401111 188.2178732262611 439.23430030877404 188.21640701108106 439.22592206487 188.21494079590101 439.21754382096606 188.65515878644723 441.5751047781668 189.09537677699345 443.93266573536755 194.44148854725177 464.12955389759065 199.7876003175101 484.3264420598138 207.43788934515334 503.63842385554176 215.08817837279656 522.9504056512696 225.16293295272925 542.5455251540577 235.2376875326619 562.1406446568458 249.43880112038232 577.3664299833113 263.6399147081027 592.5922153097767 282.92109239993465 602.0487570843725 302.2022700917666 611.5052988589683 323.97235648376386 616.8097049225395 345.7424428757612 622.1141109861106 368.8018249106767 623.9848549987037 391.8612069455922 625.8555990112968 412.8078249998107 625.759566877595 433.75444305402925 625.6635347438934 454.93197552752895 623.9811438661384 476.1095080010287 622.2987529883833 498.2010069851135 616.5473147637204 520.2925059691984 610.7958765390573 541.7826052962921 601.0039527090752 563.272704623386 591.212028879093 580.7132219500749 577.994169079416 598.1537392767638 564.7763092797388 610.2890235149094 546.64616596043 622.4243077530551 528.5160226411213 630.8062156421563 505.9237830963449 639.1881235312576 483.33154355156853 644.6784565545997 460.0261855607846 650.1687895779419 436.7208275700007 652.307206750832 414.2493988447334 654.4456239237222 391.777970119466 651.2357710955381 366.89193556357986 648.025918267354 342.00590100769375 641.2138006546393 321.38965726302627 634.4016830419246 300.7734135183588 624.6189561099748 282.33978369045917 614.8362291780248 263.9061538625595 601.0540969759927 247.87341346485584 587.2719647739607 231.84067306715218 568.0803433544552 219.3271670649067 548.8887219349496 206.81366106266117 529.3287600894281 199.85461224146837 509.76879824390664 192.8955634202756 486.3971903059206 190.44902557848016 463.02558236793465 188.0024877366847 440.5072471824847 191.54067353908306 417.9889119970348 195.07885934148143 396.7852454527194 202.44298901531005 375.58157890840397 209.80711868913863 358.20680640850935 223.5198539852094 340.8320339086148 237.23258928128016 329.0526706026994 255.1780451121761 317.27330729678397 273.12350094307203 314.56599010245304 294.5268256947 311.8586729081222 315.93015044632796 316.98718652807935 339.7501865803044 322.1157001480365 363.5702227142808 333.70377976517454 383.63522655518915 345.2918593823126 403.7002303960975 362.58242637626336 414.8057932651974 379.8729933702141 425.91135613429736 402.0420373749762 427.0126324771604 424.2110813797383 428.11390882002354 442.0234502491213 414.7861015206149 459.83581911850433 401.45829422120636 459.0187602907749 380.45904550876753 458.2017014630454 359.45979679632876 438.44392429612867 352.64365421513526 418.6861471292119 345.82751163394175 415.4283998760503 349.4263704820756 412.1706526228887 353.0252293302094 409.1560260164997 356.04298076612855 406.14139941011064 359.0607322020477 402.4921601952725 361.2693178258866 398.8429209804343 363.47790344972555 394.7711631117721 364.74896016125683 390.69940524311 366.02001687278806 386.4417794792613 366.2796707962171 382.18415371541255 366.5393247196461 377.9881134658158 365.77248475674344 373.79207321621897 365.0056447938408 369.90149253733085 363.25687971928016 366.01091185844274 361.5081146447195 362.6519114821184 358.87906276679973 359.292911105794 356.2500108888799 356.66071629172734 352.89347282627114 354.0285214776607 349.53693476366243 352.27611551211845 345.64799266626983 350.5237095465762 341.75905056887717 349.7529423466121 337.56372993412225 348.982175146648 333.36840929936733 349.2378437381383 329.11054235965844 349.49351232962863 324.85267541994955 350.7607572420234 320.77972960187753 352.0280021544181 316.7067837838055 354.23317105386775 313.0554788896833 356.4383399533173 309.40417399556105 356.437249426933 309.4055673033789 Z" fill="url(#dddraw-gradient)"></path></svg>